<?xml version="1.0" encoding="UTF-8" standalone="no"?>
<!-- Created with Inkscape (http://www.inkscape.org/) -->

<svg
   xmlns:dc="http://purl.org/dc/elements/1.1/"
   xmlns:cc="http://creativecommons.org/ns#"
   xmlns:rdf="http://www.w3.org/1999/02/22-rdf-syntax-ns#"
   xmlns:svg="http://www.w3.org/2000/svg"
   xmlns="http://www.w3.org/2000/svg"
   xmlns:sodipodi="http://sodipodi.sourceforge.net/DTD/sodipodi-0.dtd"
   xmlns:inkscape="http://www.inkscape.org/namespaces/inkscape"
   width="458.60156"
   height="477.79254"
   viewBox="0 0 121.33833 126.41595"
   version="1.1"
   id="svg8"
   inkscape:version="0.92.4 (5da689c313, 2019-01-14)"
   sodipodi:docname="app.svg">
  <defs
     id="defs2" />
  <sodipodi:namedview
     id="base"
     pagecolor="#ffffff"
     bordercolor="#666666"
     borderopacity="1.0"
     inkscape:pageopacity="0.0"
     inkscape:pageshadow="2"
     inkscape:zoom="0.35"
     inkscape:cx="180.64815"
     inkscape:cy="193.26429"
     inkscape:document-units="mm"
     inkscape:current-layer="g831"
     showgrid="false"
     units="px"
     inkscape:window-width="1745"
     inkscape:window-height="941"
     inkscape:window-x="0"
     inkscape:window-y="20"
     inkscape:window-maximized="1"
     inkscape:pagecheckerboard="true" />
  <metadata
     id="metadata5">
    <rdf:RDF>
      <cc:Work
         rdf:about="">
        <dc:format>image/svg+xml</dc:format>
        <dc:type
           rdf:resource="http://purl.org/dc/dcmitype/StillImage" />
        <dc:title></dc:title>
      </cc:Work>
    </rdf:RDF>
  </metadata>
  <g
     inkscape:label="Layer 1"
     inkscape:groupmode="layer"
     id="layer1"
     transform="translate(-74.797502,-98.32529)">
    <g
       id="g831"
       transform="matrix(1.3353892,0,0,1.3353892,-24.297326,-68.653032)"
       style="fill:#1a1a1a">
      <path
         style="fill:#ffffff;stroke-width:2.9615941"
         d="m 282.69922,273.10352 v 56.40625 26.42968 c 0,89.21507 71.45245,162.45121 159.98633,165.35352 v 0.10156 h 28.20507 5.4629 7.44726 v 14.64258 54.63477 43.33984 c 0,37.3605 17.90889,72.53565 48.11719,94.51953 30.20824,21.98085 69.18641,28.19405 104.73437,16.70313 L 619.30078,691.5625 c -18.43296,5.95881 -38.53043,2.75073 -54.1914,-8.64844 -15.66386,-11.39624 -24.89649,-29.53056 -24.89649,-48.90234 v -43.33984 h 12.89258 22.74805 5.45898 v -0.0879 c 88.53688,-2.90235 159.98828,-76.14132 159.98828,-165.35351 v -28.20508 -54.63672 h -28.20703 -35.64063 -5.46093 -28.20313 v 0.0899 C 600.73342,343.89116 561.72156,361.93681 533,390.36523 512.76642,324.32759 452.12345,275.56547 380.20703,273.20508 v -0.0899 H 374.75 352.00391 310.90625 Z M 649.25,398.78711 h 22.74219 5.46093 7.4375 v 26.43164 c 0,60.55276 -48.48439,109.03711 -109.0371,109.03711 h -22.74805 -12.89258 v -26.42774 c 0,-60.55276 48.48147,-109.04101 109.03711,-109.04101 z"
         transform="matrix(0.198132,0,0,0.198132,18.19494,70.930394)"
         id="path1339"
         inkscape:connector-curvature="0" />
    </g>
  </g>
</svg>
